<?xml version="1.0" encoding="UTF-8"?>
<svg version="1.1" xmlns="http://www.w3.org/2000/svg" width="48" height="38">
<path d="M0 0 C15.84 0 31.68 0 48 0 C48 12.54 48 25.08 48 38 C32.16 38 16.32 38 0 38 C0 25.46 0 12.92 0 0 Z " fill="#2865EB" transform="translate(0,0)"/>
<path d="M0 0 C3.3 0 6.6 0 10 0 C10 12.54 10 25.08 10 38 C6.7 38 3.4 38 0 38 C0.65121826 37.30922363 1.30243652 36.61844727 1.97338867 35.90673828 C4.39761056 32.42971312 4.48000009 30.6853106 4.42578125 26.4921875 C4.41740234 25.25855469 4.40902344 24.02492188 4.40039062 22.75390625 C4.37138672 21.47386719 4.34238281 20.19382812 4.3125 18.875 C4.29799805 16.94333984 4.29799805 16.94333984 4.28320312 14.97265625 C4.33219516 8.38097626 4.33219516 8.38097626 3 2 C2.01 1.67 1.02 1.34 0 1 C0 0.67 0 0.34 0 0 Z " fill="#F5F8FE" transform="translate(38,0)"/>
<path d="M0 0 C0.99 0 1.98 0 3 0 C3.66 2.31 4.32 4.62 5 7 C7.97 7.495 7.97 7.495 11 8 C11 9.32 11 10.64 11 12 C8.69 12.33 6.38 12.66 4 13 C3.67 15.31 3.34 17.62 3 20 C1.68 19.67 0.36 19.34 -1 19 C-1.33 17.35 -1.66 15.7 -2 14 C-4.31 13.34 -6.62 12.68 -9 12 C-8.67 10.68 -8.34 9.36 -8 8 C-6.02 8 -4.04 8 -2 8 C-1.855625 6.865625 -1.71125 5.73125 -1.5625 4.5625 C-1 1 -1 1 0 0 Z " fill="#F3F6FD" transform="translate(22,9)"/>
<path d="M0 0 C2.64 0 5.28 0 8 0 C7.35095703 0.69222656 6.70191406 1.38445313 6.03320312 2.09765625 C3.62595264 5.53394273 3.48554757 7.28610003 3.46875 11.4375 C3.46359375 12.66210938 3.4584375 13.88671875 3.453125 15.1484375 C3.46859375 16.41945313 3.4840625 17.69046875 3.5 19 C3.47679687 20.90652344 3.47679687 20.90652344 3.453125 22.8515625 C3.45828125 24.07617188 3.4634375 25.30078125 3.46875 26.5625 C3.47326172 27.67753906 3.47777344 28.79257812 3.48242188 29.94140625 C4.1042373 33.61598346 5.48144069 35.3138702 8 38 C5.36 38 2.72 38 0 38 C0 25.46 0 12.92 0 0 Z " fill="#F4F7FE" transform="translate(0,0)"/>
<path d="M0 0 C1.98 0.495 1.98 0.495 4 1 C4 2.32 4 3.64 4 5 C2.35 5 0.7 5 -1 5 C-0.67 3.35 -0.34 1.7 0 0 Z " fill="#F2F5FD" transform="translate(14,24)"/>
<path d="M0 0 C2.97 0.495 2.97 0.495 6 1 C6.33 2.32 6.66 3.64 7 5 C6.34 5 5.68 5 5 5 C4.67 5.66 4.34 6.32 4 7 C3.67 6.01 3.34 5.02 3 4 C2.01979625 2.9805881 1.02196992 1.97753644 0 1 C0 0.67 0 0.34 0 0 Z " fill="#487CEE" transform="translate(14,21)"/>
<path d="M0 0 C0.66 0 1.32 0 2 0 C2 0.66 2 1.32 2 2 C2.66 2 3.32 2 4 2 C4 2.66 4 3.32 4 4 C0.25 5.125 0.25 5.125 -2 4 C-2 3.34 -2 2.68 -2 2 C-1.34 2 -0.68 2 0 2 C0 1.34 0 0.68 0 0 Z " fill="#D7E2FB" transform="translate(30,9)"/>
</svg>
